<svg width="48" height="48" viewBox="0 0 67 66" fill="none" xmlns="http://www.w3.org/2000/svg">
<path d="M27.2353 4.81815C21.7078 6.00615 16.2473 8.97615 12.1938 13.0021C9.78179 15.4441 6.23079 20.6251 6.59929 21.2191C6.83379 21.6151 11.2893 21.2851 13.6343 20.6581C16.3478 19.9321 18.8603 18.3481 21.5068 15.5761C29.4128 7.39215 30.7528 6.40215 35.6773 5.08215L38.3573 4.32315L33.8348 4.35615C31.3223 4.35615 28.4078 4.55415 27.2353 4.81815Z" fill="#226EB5"/>
<path d="M41.6405 7.39196C34.4045 10.329 30.284 13.629 24.6895 20.955C21.1385 25.575 19.162 27.555 16.8505 28.776C14.271 30.162 11.6915 30.69 7.40347 30.69H3.58447L3.75197 34.221C3.91947 37.521 4.92447 42.339 5.69497 43.56C6.16397 44.286 13.4335 44.187 16.5825 43.428C19.631 42.702 23.718 40.722 26.6325 38.544C30.0495 36.003 38.927 27.357 38.6925 26.763C38.5585 26.4 38.6255 26.4 38.9605 26.697C39.463 27.093 39.6975 26.895 40.3675 25.74C40.602 25.311 40.5685 25.311 40.133 25.674C39.6975 26.037 39.396 25.905 38.2235 24.816C37.118 23.793 36.85 23.331 36.85 22.407C36.85 20.823 37.4195 19.8 38.8265 18.678C39.865 17.919 40.267 17.787 41.5735 17.886C43.3825 18.084 44.7225 18.909 45.2585 20.295C45.7945 21.582 45.7945 21.78 45.5265 22.836C45.292 23.694 45.3255 23.694 46.163 23.397C46.6655 23.199 48.374 23.034 49.9485 23.034C52.26 23.034 53.4325 23.232 55.878 24.057C57.5865 24.618 59.7305 25.476 60.702 25.971C61.6735 26.466 62.578 26.928 62.712 26.994C63.0135 27.126 62.444 25.014 61.573 22.77C59.295 16.962 54.1695 11.187 48.4075 7.95296C45.158 6.13796 44.823 6.10496 41.6405 7.39196Z" fill="#226EB5"/>
<path d="M51.4225 36.8282C46.833 37.8182 45.2585 38.8412 39.3625 44.7152C34.773 49.2692 33.634 50.1932 31.49 51.2492C28.3745 52.8002 25.2255 53.4602 21.038 53.4602C18.0565 53.4602 13.467 53.0312 11.8925 52.5692C11.3565 52.4372 11.39 52.5692 12.2275 53.4602C15.946 57.3872 22.311 60.6542 28.341 61.7102C30.7195 62.1392 38.4915 62.0402 39.5635 61.5782C39.8985 61.4462 40.2335 60.7532 40.334 59.9282C40.937 56.0012 44.8565 51.0512 48.9435 49.0382C51.858 47.6192 54.471 47.0582 57.3185 47.2892L59.563 47.4872L60.769 44.8802C61.9415 42.3062 63.0805 38.4122 62.8125 37.9172C62.712 37.7852 61.9415 37.4552 61.037 37.1582C58.692 36.3662 54.2365 36.2012 51.4225 36.8282Z" fill="#226EB5"/>
</svg>